<svg width="1019" height="48" viewBox="0 0 1019 48" fill="none" xmlns="http://www.w3.org/2000/svg">
<g id="Timeline">
<g clip-path="url(#clip0_2203_223)">
<rect width="1019" height="48" rx="8" fill="#D8E4FF"/>
<path id="Vector" d="M-315 18V30M-312.5 21V27M-310 19V29M-307.5 21V27M-305 19V29M-302.5 22V26M-300 19V29M-297.5 20V28M-295 23V25M-292.5 19V29M-290 22V26M-287.5 21V27M-285 18V30M-282.5 18V30M-280 18V30M-277.5 17V31M-275 21V27M-272.5 23V25M-270 16V32M-267.5 21V27M-265 22V26M-262.5 23V25M-260 17V31M-257.5 22V26M-255 21V27M-252.5 23V25M-250 23V25M-247.5 19V29M-245 21V27M-242.5 16V32M-240 22V26M-237.5 22V26M-235 22V26M-232.5 23V25M-230 17V31M-227.5 16V32M-225 19V29M-222.5 19V29M-220 23V25M-217.5 22V26M-215 21V27M-212.5 18V30M-210 17V31M-207.5 21V27M-204.5 23V25M-201.5 16V32M-198.5 21V27M-195.5 22V26M-192.5 23V25M-189.5 17V31M-186.5 22V26M-183.5 21V27M-180.5 23V25M-177.5 23V25M-174.5 19V29M-171.5 21V27M-168.5 16V32M-165.5 22V26M-162.5 22V26M-159.5 22V26M-156.5 23L-156.5 25M-153.5 17L-153.5 31M-150.5 16L-150.5 32M-147.5 19L-147.5 29M-144.5 19L-144.5 29M-141.5 23V25M-138.5 22V26M-135.5 21V27M-132.5 18V30M-129.5 20V28M-126.5 17V31M-123.5 17V31M-120.5 20V28M-117.5 23V25M-114.5 19V29M-111.5 17V31M-108.5 18V30M-106 21V27M-103.5 19V29M-101 21V27M-98.5 19V29M-96 22V26M-93.5 19V29M-91 20V28M-88.5 23V25M-86 19V29M-83.5 22V26M-81 21V27M-78.5 18V30M-76 18V30M-73.5 18V30M-71 17V31M-68.5 21V27M-66 23V25M-63.5 16V32M-61 21V27M-58.5 22V26M-56 23V25M-53.5 17V31M-51 22V26M-48.5 21V27M-46 23V25M-43.5 23V25M-41 19V29M-38.5 21V27M-36 16V32M-33.5 22V26M-31 22V26M-28.5 22V26M-26 23V25M-23.5 17V31M-21 16V32M-18.5 19V29M-16 19V29M-13.5 23V25M-11 22V26M-8.49997 21V27M-5.99997 18V30M-3.49997 17V31M-0.999969 21V27M2.00003 23V25M5.00003 16V32M8.00003 21V27M11 22V26M14 23V25M17 17V31M20.0001 22V26M23.0001 21V27M26.0001 23V25M29.0001 23V25M32 19V29M35.0001 21V27M38.0001 16V32M41.0001 22V26M44 22V26M47 22V26M50 23L50.0001 25M53 17L53.0001 31M56 16L56.0001 32M59 19L59.0001 29M62 19L62.0001 29M65.0001 23V25M68.0001 22V26M71.0001 21V27M74.0001 18V30M77.0001 20V28M80.0001 17V31M83.0001 17V31M86.0001 20V28M89.0001 23V25M92.0001 19V29M95.0001 17V31M98.0001 18V30M100.5 21V27M103 19V29M105.5 21V27M108 19V29M110.5 22V26M113 19V29M115.5 20V28M118 23V25M120.5 19V29M123 22V26M125.5 21V27M128 18V30M130.5 18V30M133 18V30M135.5 17V31M138 21V27M140.5 23V25M143 16V32M145.5 21V27M148 22V26M150.5 23V25M153 17V31M155.5 22V26M158 21V27M160.5 23V25M163 23V25M165.5 19V29M168 21V27M170.5 16V32M173 22V26M175.5 22V26M178 22V26M180.5 23V25M183 17V31M185.5 16V32M188 19V29M190.5 19V29M193 23V25M195.5 22V26M198 21V27M200.5 18V30M203 17V31M205.5 21V27M208.5 23V25M211.5 16V32M214.5 21V27M217.5 22V26M220.5 23V25M223.5 17V31M226.5 22V26M229.5 21V27M232.5 23V25M235.5 23V25M238.5 19V29M241.5 21V27M244.5 16V32M247.5 22V26M250.5 22V26M253.5 22V26M256.5 23L256.5 25M259.5 17L259.5 31M262.5 16L262.5 32M265.5 19L265.5 29M268.5 19L268.5 29M271.5 23V25M274.5 22V26M277.5 21V27M280.5 18V30M283.5 20V28M286.5 17V31M289.5 17V31M292.5 20V28M295.5 23V25M298.5 19V29M301.5 17V31M304.5 18V30M307 21V27M309.5 19V29M312 21V27M314.5 19V29M317 22V26M319.5 19V29M322 20V28M324.5 23V25M327 19V29M329.5 22V26M332 21V27M334.5 18V30M337 18V30M339.5 18V30M342 17V31M344.5 21V27M347 23V25M349.5 16V32M352 21V27M354.5 22V26M357 23V25M359.5 17V31M362 22V26M364.5 21V27M367 23V25M369.5 23V25M372 19V29M374.5 21V27M377 16V32M379.5 22V26M382 22V26M384.5 22V26M387 23V25M389.5 17V31M392 16V32M394.5 19V29M397 19V29M399.5 23V25M402 22V26M404.5 21V27M407 18V30M409.5 17V31M412 21V27M415 23V25M418 16V32M421 21V27M424 22V26M427 23V25M430 17V31M433 22V26M436 21V27M439 23V25M442 23V25M445 19V29M448 21V27M451 16V32M454 22V26M457 22V26M460 22V26M463 23V25M466 17V31M469 16V32M472 19V29M475 19V29M478 23V25M481 22V26M484 21V27M487 18V30M490 20V28M493 17V31M496 17V31M499 20V28M502 23V25M505 19V29M508 17V31M511 18V30M513.5 21V27M516 19V29M518.5 21V27M521 19V29M523.5 22V26M526 19V29M528.5 20V28M531 23V25M533.5 19V29M536 22V26M538.5 21V27M541 18V30M543.5 18V30M546 18V30M548.5 17V31M551 21V27M553.5 23V25M556 16V32M558.5 21V27M561 22V26M563.5 23V25M566 17V31M568.5 22V26M571 21V27M573.5 23V25M576 23V25M578.5 19V29M581 21V27M583.5 16V32M586 22V26M588.5 22V26M591 22V26M593.5 23V25M596 17V31M598.5 16V32M601 19V29M603.5 19V29M606 23V25M608.5 22V26M611 21V27M613.5 18V30M616 17V31M618.5 21V27M621.5 23V25M624.5 16V32M627.5 21V27M630.5 22V26M633.5 23V25M636.5 17V31M639.5 22V26M642.5 21V27M645.5 23V25M648.5 23V25M651.5 19V29M654.5 21V27M657.5 16V32M660.5 22V26M663.5 22V26M666.5 22V26M669.5 23V25M672.5 17V31M675.5 16V32M678.5 19V29M681.5 19V29M684.5 23V25M687.5 22V26M690.5 21V27M693.5 18V30M696.5 20V28M699.5 17V31M702.5 17V31M705.5 20V28M708.5 23V25M711.5 19V29M714.5 17V31M717.5 18V30M720 21V27M722.5 19V29M725 21V27M727.5 19V29M730 22V26M732.5 19V29M735 20V28M737.5 23V25M740 19V29M742.5 22V26M745 21V27M747.5 18V30M750 18V30M752.5 18V30M755 17V31M757.5 21V27M760 23V25M762.5 16V32M765 21V27M767.5 22V26M770 23V25M772.5 17V31M775 22V26M777.5 21V27M780 23V25M782.5 23V25M785 19V29M787.5 21V27M790 16V32M792.5 22V26M795 22V26M797.5 22V26M800 23V25M802.5 17V31M805 16V32M807.5 19V29M810 19V29M812.5 23V25M815 22V26M817.5 21V27M820 18V30M822.5 17V31M825 21V27M828 23V25M831 16V32M834 21V27M837 22V26M840 23V25M843 17V31M846 22V26M849 21V27M852 23V25M855 23V25M858 19V29M861 21V27M864 16V32M867 22V26M870 22V26M873 22V26M876 23L876 25M879 17L879 31M882 16L882 32M885 19L885 29M888 19L888 29M891 23V25M894 22V26M897 21V27M900 18V30M903 20V28M906 17V31M909 17V31M912 20V28M915 23V25M918 19V29M921 17V31M924 18V30M926.5 21V27M929 19V29M931.5 21V27M934 19V29M936.5 22V26M939 19V29M941.5 20V28M944 23V25M946.5 19V29M949 22V26M951.5 21V27M954 18V30M956.5 18V30M959 18V30M961.5 17V31M964 21V27M966.5 23V25M969 16V32M971.5 21V27M974 22V26M976.5 23V25M979 17V31M981.5 22V26M984 21V27M986.5 23V25M989 23V25M991.5 19V29M994 21V27M996.5 16V32M999 22V26M1001.5 22V26M1004 22V26M1006.5 23V25M1009 17V31M1011.5 16V32M1014 19V29M1016.5 19V29M1019 23V25M1021.5 22V26M1024 21V27M1026.5 18V30M1029 17V31M1031.5 21V27M1034.5 23V25M1037.5 16V32M1040.5 21V27M1043.5 22V26M1046.5 23V25M1049.5 17V31M1052.5 22V26M1055.5 21V27M1058.5 23V25M1061.5 23V25M1064.5 19V29M1067.5 21V27M1070.5 16V32M1073.5 22V26M1076.5 22V26M1079.5 22V26M1082.5 23V25M1085.5 17V31M1088.5 16V32M1091.5 19V29M1094.5 19V29M1097.5 23V25M1100.5 22V26M1103.5 21V27M1106.5 18V30M1109.5 20V28M1112.5 17V31M1115.5 17V31M1118.5 20V28M1121.5 23V25M1124.5 19V29M1127.5 17V31M1130.5 18V30M1133 21V27M1135.5 19V29M1138 21V27M1140.5 19V29M1143 22V26M1145.5 19V29M1148 20V28M1150.5 23V25M1153 19V29M1155.5 22V26M1158 21V27M1160.5 18V30M1163 18V30M1165.5 18V30M1168 17V31M1170.5 21V27M1173 23V25M1175.5 16V32M1178 21V27M1180.5 22V26M1183 23V25M1185.5 17V31M1188 22V26M1190.5 21V27M1193 23V25M1195.5 23V25M1198 19V29M1200.5 21V27M1203 16V32M1205.5 22V26M1208 22V26M1210.5 22V26M1213 23V25M1215.5 17V31M1218 16V32M1220.5 19V29M1223 19V29M1225.5 23V25M1228 22V26M1230.5 21V27M1233 18V30M1235.5 17V31M1238 21V27M1241 23V25M1244 16V32M1247 21V27M1250 22V26M1253 23V25M1256 17V31M1259 22V26M1262 21V27M1265 23V25M1268 23V25M1271 19V29M1274 21V27M1277 16V32M1280 22V26M1283 22V26M1286 22V26M1289 23V25M1292 17V31M1295 16V32M1298 19V29M1301 19V29M1304 23V25M1307 22V26M1310 21V27M1313 18V30M1316 20V28M1319 17V31M1322 17V31M1325 20V28M1328 23V25M1331 19V29M1334 17V31" stroke="#0D4CE1" stroke-width="1.2" stroke-linecap="round"/>
<g id="Group 1160444817">
<rect id="Rectangle 40447" width="76" height="49" fill="url(#paint0_linear_2203_223)"/>
<g id="Frame 2147224431" filter="url(#filter0_d_2203_223)">
<rect x="4" y="12" width="24" height="24" rx="6" fill="#CAF6FD"/>
<rect x="4" y="12" width="24" height="24" rx="6" fill="url(#paint1_linear_2203_223)"/>
<rect x="4.5" y="12.5" width="23" height="23" rx="5.5" stroke="#0D4CE1" stroke-opacity="0.4"/>
<g id="monitor-02">
<path id="Icon" d="M13.7859 28.5C14.4533 28.1799 15.205 28 16 28C16.795 28 17.5467 28.1799 18.2141 28.5M13.4 26.5H18.6C19.4401 26.5 19.8601 26.5 20.181 26.3365C20.4632 26.1927 20.6927 25.9632 20.8365 25.681C21 25.3601 21 24.9401 21 24.1V21.9C21 21.0599 21 20.6399 20.8365 20.319C20.6927 20.0368 20.4632 19.8073 20.181 19.6635C19.8601 19.5 19.4401 19.5 18.6 19.5H13.4C12.5599 19.5 12.1399 19.5 11.819 19.6635C11.5368 19.8073 11.3073 20.0368 11.1635 20.319C11 20.6399 11 21.0599 11 21.9V24.1C11 24.9401 11 25.3601 11.1635 25.681C11.3073 25.9632 11.5368 26.1927 11.819 26.3365C12.1399 26.5 12.5599 26.5 13.4 26.5Z" stroke="#0D4CE1" stroke-linecap="round" stroke-linejoin="round"/>
</g>
</g>
</g>
</g>
</g>
<defs>
<filter id="filter0_d_2203_223" x="-2" y="9" width="36" height="36" filterUnits="userSpaceOnUse" color-interpolation-filters="sRGB">
<feFlood flood-opacity="0" result="BackgroundImageFix"/>
<feColorMatrix in="SourceAlpha" type="matrix" values="0 0 0 0 0 0 0 0 0 0 0 0 0 0 0 0 0 0 127 0" result="hardAlpha"/>
<feMorphology radius="3" operator="erode" in="SourceAlpha" result="effect1_dropShadow_2203_223"/>
<feOffset dy="3"/>
<feGaussianBlur stdDeviation="4.5"/>
<feComposite in2="hardAlpha" operator="out"/>
<feColorMatrix type="matrix" values="0 0 0 0 0 0 0 0 0 0 0 0 0 0 0 0 0 0 0.25 0"/>
<feBlend mode="normal" in2="BackgroundImageFix" result="effect1_dropShadow_2203_223"/>
<feBlend mode="normal" in="SourceGraphic" in2="effect1_dropShadow_2203_223" result="shape"/>
</filter>
<linearGradient id="paint0_linear_2203_223" x1="76" y1="24.5" x2="0" y2="24.5" gradientUnits="userSpaceOnUse">
<stop stop-color="#D8E4FF" stop-opacity="0"/>
<stop offset="0.666499" stop-color="#D8E4FF"/>
</linearGradient>
<linearGradient id="paint1_linear_2203_223" x1="16" y1="12" x2="16" y2="36" gradientUnits="userSpaceOnUse">
<stop stop-color="#D8E4FF"/>
<stop offset="1" stop-color="#F6FFFF"/>
</linearGradient>
<clipPath id="clip0_2203_223">
<rect width="1019" height="48" rx="8" fill="white"/>
</clipPath>
</defs>
</svg>
