<svg width="1019" height="32" viewBox="0 0 1019 32" fill="none" xmlns="http://www.w3.org/2000/svg">
<g clip-path="url(#clip0_2203_243)">
<rect width="1019" height="32" rx="8" fill="#F670C7" fill-opacity="0.1"/>
<path d="M-315 10V22M-312.5 13V19M-310 11V21M-307.5 13V19M-305 11V21M-302.5 14V18M-300 11V21M-297.5 12V20M-295 15V17M-292.5 11V21M-290 14V18M-287.5 13V19M-285 10V22M-282.5 10V22M-280 10V22M-277.5 9V23M-275 13V19M-272.5 15V17M-270 8V24M-267.5 13V19M-265 14V18M-262.5 15V17M-260 9V23M-257.5 14V18M-255 13V19M-252.5 15V17M-250 15V17M-247.5 11V21M-245 13V19M-242.5 8V24M-240 14V18M-237.5 14V18M-235 14V18M-232.5 15V17M-230 9V23M-227.5 8V24M-225 11V21M-222.5 11V21M-220 15V17M-217.5 14V18M-215 13V19M-212.5 10V22M-210 9V23M-207.5 13V19M-204.5 15V17M-201.5 8V24M-198.5 13V19M-195.5 14V18M-192.5 15V17M-189.5 9V23M-186.5 14V18M-183.5 13V19M-180.5 15V17M-177.5 15V17M-174.5 11V21M-171.5 13V19M-168.5 8V24M-165.5 14V18M-162.5 14V18M-159.5 14V18M-156.5 15L-156.5 17M-153.5 9L-153.5 23M-150.5 8L-150.5 24M-147.5 11L-147.5 21M-144.5 11L-144.5 21M-141.5 15V17M-138.5 14V18M-135.5 13V19M-132.5 10V22M-129.5 12V20M-126.5 9V23M-123.5 9V23M-120.5 12V20M-117.5 15V17M-114.5 11V21M-111.5 9V23M-108.5 10V22M-106 13V19M-103.5 11V21M-101 13V19M-98.5 11V21M-96 14V18M-93.5 11V21M-91 12V20M-88.5 15V17M-86 11V21M-83.5 14V18M-81 13V19M-78.5 10V22M-76 10V22M-73.5 10V22M-71 9V23M-68.5 13V19M-66 15V17M-63.5 8V24M-61 13V19M-58.5 14V18M-56 15V17M-53.5 9V23M-51 14V18M-48.5 13V19M-46 15V17M-43.5 15V17M-41 11V21M-38.5 13V19M-36 8V24M-33.5 14V18M-31 14V18M-28.5 14V18M-26 15V17M-23.5 9V23M-21 8V24M-18.5 11V21M-16 11V21M-13.5 15V17M-11 14V18M-8.49997 13V19M-5.99997 10V22M-3.49997 9V23M-0.999969 13V19M2.00003 15V17M5.00003 8V24M8.00003 13V19M11 14V18M14 15V17M17 9V23M20.0001 14V18M23.0001 13V19M26.0001 15V17M29.0001 15V17M32 11V21M35.0001 13V19M38.0001 8V24M41.0001 14V18M44 14V18M47 14V18M50 15L50.0001 17M53 9L53.0001 23M56 8L56.0001 24M59 11L59.0001 21M62 11L62.0001 21M65.0001 15V17M68.0001 14V18M71.0001 13V19M74.0001 10V22M77.0001 12V20M80.0001 9V23M83.0001 9V23M86.0001 12V20M89.0001 15V17M92.0001 11V21M95.0001 9V23M98.0001 10V22M100.5 13V19M103 11V21M105.5 13V19M108 11V21M110.5 14V18M113 11V21M115.5 12V20M118 15V17M120.5 11V21M123 14V18M125.5 13V19M128 10V22M130.5 10V22M133 10V22M135.5 9V23M138 13V19M140.5 15V17M143 8V24M145.5 13V19M148 14V18M150.5 15V17M153 9V23M155.5 14V18M158 13V19M160.5 15V17M163 15V17M165.5 11V21M168 13V19M170.5 8V24M173 14V18M175.5 14V18M178 14V18M180.5 15V17M183 9V23M185.5 8V24M188 11V21M190.5 11V21M193 15V17M195.5 14V18M198 13V19M200.5 10V22M203 9V23M205.5 13V19M208.5 15V17M211.5 8V24M214.5 13V19M217.5 14V18M220.5 15V17M223.5 9V23M226.5 14V18M229.5 13V19M232.5 15V17M235.5 15V17M238.5 11V21M241.5 13V19M244.5 8V24M247.5 14V18M250.5 14V18M253.5 14V18M256.5 15L256.5 17M259.5 9L259.5 23M262.5 8L262.5 24M265.5 11L265.5 21M268.5 11L268.5 21M271.5 15V17M274.5 14V18M277.5 13V19M280.5 10V22M283.5 12V20M286.5 9V23M289.5 9V23M292.5 12V20M295.5 15V17M298.5 11V21M301.5 9V23M304.5 10V22M307 13V19M309.5 11V21M312 13V19M314.5 11V21M317 14V18M319.5 11V21M322 12V20M324.5 15V17M327 11V21M329.5 14V18M332 13V19M334.5 10V22M337 10V22M339.5 10V22M342 9V23M344.5 13V19M347 15V17M349.5 8V24M352 13V19M354.5 14V18M357 15V17M359.5 9V23M362 14V18M364.5 13V19M367 15V17M369.5 15V17M372 11V21M374.5 13V19M377 8V24M379.5 14V18M382 14V18M384.5 14V18M387 15V17M389.5 9V23M392 8V24M394.5 11V21M397 11V21M399.5 15V17M402 14V18M404.5 13V19M407 10V22M409.5 9V23M412 13V19M415 15V17M418 8V24M421 13V19M424 14V18M427 15V17M430 9V23M433 14V18M436 13V19M439 15V17M442 15V17M445 11V21M448 13V19M451 8V24M454 14V18M457 14V18M460 14V18M463 15V17M466 9V23M469 8V24M472 11V21M475 11V21M478 15V17M481 14V18M484 13V19M487 10V22M490 12V20M493 9V23M496 9V23M499 12V20M502 15V17M505 11V21M508 9V23M511 10V22M513.5 13V19M516 11V21M518.5 13V19M521 11V21M523.5 14V18M526 11V21M528.5 12V20M531 15V17M533.5 11V21M536 14V18M538.5 13V19M541 10V22M543.5 10V22M546 10V22M548.5 9V23M551 13V19M553.5 15V17M556 8V24M558.5 13V19M561 14V18M563.5 15V17M566 9V23M568.5 14V18M571 13V19M573.5 15V17M576 15V17M578.5 11V21M581 13V19M583.5 8V24M586 14V18M588.5 14V18M591 14V18M593.5 15V17M596 9V23M598.5 8V24M601 11V21M603.5 11V21M606 15V17M608.5 14V18M611 13V19M613.5 10V22M616 9V23M618.5 13V19M621.5 15V17M624.5 8V24M627.5 13V19M630.5 14V18M633.5 15V17M636.5 9V23M639.5 14V18M642.5 13V19M645.5 15V17M648.5 15V17M651.5 11V21M654.5 13V19M657.5 8V24M660.5 14V18M663.5 14V18M666.5 14V18M669.5 15V17M672.5 9V23M675.5 8V24M678.5 11V21M681.5 11V21M684.5 15V17M687.5 14V18M690.5 13V19M693.5 10V22M696.5 12V20M699.5 9V23M702.5 9V23M705.5 12V20M708.5 15V17M711.5 11V21M714.5 9V23M717.5 10V22M720 13V19M722.5 11V21M725 13V19M727.5 11V21M730 14V18M732.5 11V21M735 12V20M737.5 15V17M740 11V21M742.5 14V18M745 13V19M747.5 10V22M750 10V22M752.5 10V22M755 9V23M757.5 13V19M760 15V17M762.5 8V24M765 13V19M767.5 14V18M770 15V17M772.5 9V23M775 14V18M777.5 13V19M780 15V17M782.5 15V17M785 11V21M787.5 13V19M790 8V24M792.5 14V18M795 14V18M797.5 14V18M800 15V17M802.5 9V23M805 8V24M807.5 11V21M810 11V21M812.5 15V17M815 14V18M817.5 13V19M820 10V22M822.5 9V23M825 13V19M828 15V17M831 8V24M834 13V19M837 14V18M840 15V17M843 9V23M846 14V18M849 13V19M852 15V17M855 15V17M858 11V21M861 13V19M864 8V24M867 14V18M870 14V18M873 14V18M876 15L876 17M879 9L879 23M882 8L882 24M885 11L885 21M888 11L888 21M891 15V17M894 14V18M897 13V19M900 10V22M903 12V20M906 9V23M909 9V23M912 12V20M915 15V17M918 11V21M921 9V23M924 10V22M926.5 13V19M929 11V21M931.5 13V19M934 11V21M936.5 14V18M939 11V21M941.5 12V20M944 15V17M946.5 11V21M949 14V18M951.5 13V19M954 10V22M956.5 10V22M959 10V22M961.5 9V23M964 13V19M966.5 15V17M969 8V24M971.5 13V19M974 14V18M976.5 15V17M979 9V23M981.5 14V18M984 13V19M986.5 15V17M989 15V17M991.5 11V21M994 13V19M996.5 8V24M999 14V18M1001.5 14V18M1004 14V18M1006.5 15V17M1009 9V23M1011.5 8V24M1014 11V21M1016.5 11V21M1019 15V17M1021.5 14V18M1024 13V19M1026.5 10V22M1029 9V23M1031.5 13V19M1034.5 15V17M1037.5 8V24M1040.5 13V19M1043.5 14V18M1046.5 15V17M1049.5 9V23M1052.5 14V18M1055.5 13V19M1058.5 15V17M1061.5 15V17M1064.5 11V21M1067.5 13V19M1070.5 8V24M1073.5 14V18M1076.5 14V18M1079.5 14V18M1082.5 15V17M1085.5 9V23M1088.5 8V24M1091.5 11V21M1094.5 11V21M1097.5 15V17M1100.5 14V18M1103.5 13V19M1106.5 10V22M1109.5 12V20M1112.5 9V23M1115.5 9V23M1118.5 12V20M1121.5 15V17M1124.5 11V21M1127.5 9V23M1130.5 10V22M1133 13V19M1135.5 11V21M1138 13V19M1140.5 11V21M1143 14V18M1145.5 11V21M1148 12V20M1150.5 15V17M1153 11V21M1155.5 14V18M1158 13V19M1160.5 10V22M1163 10V22M1165.5 10V22M1168 9V23M1170.5 13V19M1173 15V17M1175.5 8V24M1178 13V19M1180.5 14V18M1183 15V17M1185.5 9V23M1188 14V18M1190.5 13V19M1193 15V17M1195.5 15V17M1198 11V21M1200.5 13V19M1203 8V24M1205.5 14V18M1208 14V18M1210.5 14V18M1213 15V17M1215.5 9V23M1218 8V24M1220.5 11V21M1223 11V21M1225.5 15V17M1228 14V18M1230.5 13V19M1233 10V22M1235.5 9V23M1238 13V19M1241 15V17M1244 8V24M1247 13V19M1250 14V18M1253 15V17M1256 9V23M1259 14V18M1262 13V19M1265 15V17M1268 15V17M1271 11V21M1274 13V19M1277 8V24M1280 14V18M1283 14V18M1286 14V18M1289 15V17M1292 9V23M1295 8V24M1298 11V21M1301 11V21M1304 15V17M1307 14V18M1310 13V19M1313 10V22M1316 12V20M1319 9V23M1322 9V23M1325 12V20M1328 15V17M1331 11V21M1334 9V23" stroke="#EE45BC" stroke-width="1.2" stroke-linecap="round"/>
<rect y="-6" width="76" height="43" fill="url(#paint0_linear_2203_243)"/>
<g filter="url(#filter0_d_2203_243)">
<rect x="4" y="4" width="24" height="24" rx="6" fill="#CAF6FD"/>
<rect x="4" y="4" width="24" height="24" rx="6" fill="url(#paint1_linear_2203_243)"/>
<rect x="4.5" y="4.5" width="23" height="23" rx="5.5" stroke="#EE45BC"/>
<path d="M14.5 19V13.1777C14.5 12.9369 14.5 12.8165 14.5438 12.7189C14.5824 12.6328 14.6446 12.5594 14.7231 12.5072C14.8122 12.4479 14.931 12.4282 15.1685 12.3886L19.5685 11.6552C19.889 11.6018 20.0492 11.5751 20.1741 11.6215C20.2837 11.6622 20.3755 11.74 20.4337 11.8414C20.5 11.957 20.5 12.1194 20.5 12.4444V18M14.5 19C14.5 19.8284 13.8284 20.5 13 20.5C12.1716 20.5 11.5 19.8284 11.5 19C11.5 18.1716 12.1716 17.5 13 17.5C13.8284 17.5 14.5 18.1716 14.5 19ZM20.5 18C20.5 18.8284 19.8284 19.5 19 19.5C18.1716 19.5 17.5 18.8284 17.5 18C17.5 17.1716 18.1716 16.5 19 16.5C19.8284 16.5 20.5 17.1716 20.5 18Z" stroke="#EE45BC" stroke-linecap="round" stroke-linejoin="round"/>
</g>
</g>
<defs>
<filter id="filter0_d_2203_243" x="-2" y="1" width="36" height="36" filterUnits="userSpaceOnUse" color-interpolation-filters="sRGB">
<feFlood flood-opacity="0" result="BackgroundImageFix"/>
<feColorMatrix in="SourceAlpha" type="matrix" values="0 0 0 0 0 0 0 0 0 0 0 0 0 0 0 0 0 0 127 0" result="hardAlpha"/>
<feMorphology radius="3" operator="erode" in="SourceAlpha" result="effect1_dropShadow_2203_243"/>
<feOffset dy="3"/>
<feGaussianBlur stdDeviation="4.5"/>
<feComposite in2="hardAlpha" operator="out"/>
<feColorMatrix type="matrix" values="0 0 0 0 0 0 0 0 0 0 0 0 0 0 0 0 0 0 0.25 0"/>
<feBlend mode="normal" in2="BackgroundImageFix" result="effect1_dropShadow_2203_243"/>
<feBlend mode="normal" in="SourceGraphic" in2="effect1_dropShadow_2203_243" result="shape"/>
</filter>
<linearGradient id="paint0_linear_2203_243" x1="76" y1="15.5" x2="0" y2="15.5" gradientUnits="userSpaceOnUse">
<stop stop-color="#FEF0F9" stop-opacity="0"/>
<stop offset="0.666499" stop-color="#FEF0F9"/>
</linearGradient>
<linearGradient id="paint1_linear_2203_243" x1="16" y1="4" x2="16" y2="28" gradientUnits="userSpaceOnUse">
<stop stop-color="#FFDEF3"/>
<stop offset="1" stop-color="#FEF0F9"/>
</linearGradient>
<clipPath id="clip0_2203_243">
<rect width="1019" height="32" rx="8" fill="white"/>
</clipPath>
</defs>
</svg>
