<svg width="29" height="28" viewBox="0 0 29 28" fill="none" xmlns="http://www.w3.org/2000/svg">
<path d="M8.5 8V20M18.2718 19.0746L13.2672 15.0709C12.8096 14.7048 12.5808 14.5218 12.498 14.3007C12.4254 14.1068 12.4254 13.8932 12.498 13.6993C12.5808 13.4782 12.8096 13.2952 13.2672 12.9291L18.2718 8.92538C18.9851 8.35475 19.3418 8.06943 19.6419 8.06911C19.903 8.06883 20.1499 8.18751 20.3128 8.39152C20.5 8.6261 20.5 9.08283 20.5 9.99629V18.0037C20.5 18.9172 20.5 19.3739 20.3128 19.6085C20.1499 19.8125 19.903 19.9312 19.6419 19.9309C19.3418 19.9306 18.9851 19.6453 18.2718 19.0746Z" stroke="#303030" stroke-width="1.2" stroke-linecap="round" stroke-linejoin="round"/>
</svg>
