<svg width="29" height="28" viewBox="0 0 29 28" fill="none" xmlns="http://www.w3.org/2000/svg">
<path d="M20.5 8V20M10.7282 19.0746L15.7328 15.0709C16.1904 14.7048 16.4192 14.5218 16.502 14.3007C16.5746 14.1068 16.5746 13.8932 16.502 13.6993C16.4192 13.4782 16.1904 13.2952 15.7328 12.9291L10.7282 8.92538C10.0149 8.35475 9.65822 8.06943 9.35807 8.06911C9.09703 8.06883 8.8501 8.18751 8.68725 8.39152C8.5 8.6261 8.5 9.08283 8.5 9.99629V18.0037C8.5 18.9172 8.5 19.3739 8.68725 19.6085C8.8501 19.8125 9.09703 19.9312 9.35807 19.9309C9.65822 19.9306 10.0149 19.6453 10.7282 19.0746Z" stroke="#303030" stroke-width="1.2" stroke-linecap="round" stroke-linejoin="round"/>
</svg>
