<svg width="32" height="32" viewBox="0 0 32 32" fill="none" xmlns="http://www.w3.org/2000/svg">
<path d="M16 16L23.5 16M16 8.5L16 23.5M12.5 8.5H19.5C20.9001 8.5 21.6002 8.5 22.135 8.77248C22.6054 9.01217 22.9878 9.39462 23.2275 9.86502C23.5 10.3998 23.5 11.0999 23.5 12.5V19.5C23.5 20.9001 23.5 21.6002 23.2275 22.135C22.9878 22.6054 22.6054 22.9878 22.135 23.2275C21.6002 23.5 20.9001 23.5 19.5 23.5H12.5C11.0999 23.5 10.3998 23.5 9.86502 23.2275C9.39462 22.9878 9.01217 22.6054 8.77248 22.135C8.5 21.6002 8.5 20.9001 8.5 19.5V12.5C8.5 11.0999 8.5 10.3998 8.77248 9.86502C9.01217 9.39462 9.39462 9.01217 9.86502 8.77248C10.3998 8.5 11.0999 8.5 12.5 8.5Z" stroke="#505050" stroke-width="1.2" stroke-linecap="round" stroke-linejoin="round"/>
</svg>
