<svg width="32" height="32" viewBox="0 0 32 32" fill="none" xmlns="http://www.w3.org/2000/svg">
<path d="M17.6668 15.1666H12.6668M14.3335 18.5H12.6668M19.3335 11.8333H12.6668M22.6668 11.6666V20.3333C22.6668 21.7334 22.6668 22.4335 22.3943 22.9683C22.1547 23.4387 21.7722 23.8211 21.3018 24.0608C20.767 24.3333 20.067 24.3333 18.6668 24.3333H13.3335C11.9334 24.3333 11.2333 24.3333 10.6985 24.0608C10.2281 23.8211 9.84566 23.4387 9.60598 22.9683C9.3335 22.4335 9.3335 21.7334 9.3335 20.3333V11.6666C9.3335 10.2665 9.3335 9.56643 9.60598 9.03165C9.84566 8.56124 10.2281 8.17879 10.6985 7.93911C11.2333 7.66663 11.9334 7.66663 13.3335 7.66663H18.6668C20.067 7.66663 20.767 7.66663 21.3018 7.93911C21.7722 8.17879 22.1547 8.56124 22.3943 9.03165C22.6668 9.56643 22.6668 10.2665 22.6668 11.6666Z" stroke="#505050" stroke-width="1.2" stroke-linecap="round" stroke-linejoin="round"/>
</svg>
