<svg width="32" height="32" viewBox="0 0 32 32" fill="none" xmlns="http://www.w3.org/2000/svg">
<path d="M13.5 21.0001V11.2962C13.5 10.8949 13.5 10.6943 13.573 10.5316C13.6374 10.3881 13.741 10.2658 13.8719 10.1787C14.0204 10.08 14.2183 10.047 14.6141 9.98103L21.9475 8.75881C22.4816 8.66978 22.7487 8.62527 22.9568 8.70258C23.1395 8.77042 23.2926 8.90012 23.3895 9.06913C23.5 9.26173 23.5 9.53249 23.5 10.074V19.3334M13.5 21.0001C13.5 22.3808 12.3807 23.5001 11 23.5001C9.61929 23.5001 8.5 22.3808 8.5 21.0001C8.5 19.6193 9.61929 18.5001 11 18.5001C12.3807 18.5001 13.5 19.6193 13.5 21.0001ZM23.5 19.3334C23.5 20.7141 22.3807 21.8334 21 21.8334C19.6193 21.8334 18.5 20.7141 18.5 19.3334C18.5 17.9527 19.6193 16.8334 21 16.8334C22.3807 16.8334 23.5 17.9527 23.5 19.3334Z" stroke="#505050" stroke-width="1.2" stroke-linecap="round" stroke-linejoin="round"/>
</svg>
